<?xml version="1.0" encoding="utf-8"?>
<!-- Generator: Adobe Illustrator 16.0.3, SVG Export Plug-In . SVG Version: 6.00 Build 0)  -->
<!DOCTYPE svg PUBLIC "-//W3C//DTD SVG 1.1//EN" "http://www.w3.org/Graphics/SVG/1.1/DTD/svg11.dtd">
<svg version="1.1" id="Ebene_1" xmlns="http://www.w3.org/2000/svg" xmlns:xlink="http://www.w3.org/1999/xlink" x="0px" y="0px"
	 width="300px" height="100px" viewBox="0 0 300 100" enable-background="new 0 0 300 100" xml:space="preserve">
<circle cx="50" cy="50.167" r="45"/>
<g>
	<path d="M149.999,8.834C172.607,8.834,191,27.226,191,49.833c0,22.606-18.394,41-41.001,41S109,72.439,109,49.833
		C109,27.226,127.392,8.834,149.999,8.834 M149.999,4.834C125.146,4.834,105,24.98,105,49.833c0,24.853,20.146,45,44.999,45
		c24.853,0,45.001-20.147,45.001-45C195,24.98,174.852,4.834,149.999,4.834L149.999,4.834z"/>
</g>
<g>
	<path d="M250,8.833c22.606,0,41,18.393,41,41c0,22.606-18.394,41-41,41c-22.607,0-41-18.394-41-41
		C209,27.226,227.393,8.833,250,8.833 M250,4.833c-24.854,0-45,20.147-45,45c0,24.853,20.146,45,45,45c24.852,0,45-20.147,45-45
		C295,24.98,274.852,4.833,250,4.833L250,4.833z"/>
</g>
</svg>
