<?xml version="1.0" encoding="utf-8"?>
<!-- Generator: Adobe Illustrator 16.0.3, SVG Export Plug-In . SVG Version: 6.00 Build 0)  -->
<!DOCTYPE svg PUBLIC "-//W3C//DTD SVG 1.1//EN" "http://www.w3.org/Graphics/SVG/1.1/DTD/svg11.dtd">
<svg version="1.1" id="Ebene_1" xmlns="http://www.w3.org/2000/svg" xmlns:xlink="http://www.w3.org/1999/xlink" x="0px" y="0px"
	 width="1754.321px" height="592.593px" viewBox="0 0 1754.321 592.593" enable-background="new 0 0 1754.321 592.593"
	 xml:space="preserve">
<text transform="matrix(1 0 0 1 5.9561 477.3809)" fill="#DCEDC8" font-family="'Rockwell'" font-size="226.589">GlobalHighKing</text>
<g>
	<path fill="#DCEDC8" d="M10.845,503.263c4.834,2.909,9.957,5.257,15.083,7.581c5.135,2.307,10.328,4.484,15.543,6.602
		c10.435,4.225,20.978,8.177,31.587,11.925c10.609,3.75,21.294,7.275,32.026,10.632c10.73,3.357,21.512,6.541,32.354,9.477
		c21.686,5.85,43.573,10.919,65.639,14.614c11.029,1.846,22.091,3.434,33.175,4.489c11.059,1.069,22.226,1.703,33.17,1.655
		l4.227-0.057c1.412-0.015,2.828-0.027,4.169-0.117c2.727-0.154,5.43-0.239,8.168-0.444l8.236-0.711l8.214-0.966
		c10.936-1.469,21.795-3.583,32.582-6.148c10.789-2.565,21.508-5.577,32.21-8.805c10.697-3.248,21.404-6.632,32.208-9.867
		c21.624-6.407,43.504-12.695,65.796-17.723c11.147-2.494,22.386-4.689,33.713-6.429c11.331-1.714,22.731-3.009,34.167-3.902
		c11.443-0.81,22.913-1.194,34.379-1.169l0.538-0.003c0.045-0.005,0.542,0.002,0.684,0.008l1.056,0.03l2.112,0.06l4.225,0.12
		l8.449,0.239l8.45,0.239l2.112,0.061l2.137,0.132l4.278,0.275l17.11,1.104l4.278,0.277l4.241,0.387l8.474,0.798l16.945,1.612
		l16.88,1.991c44.998,5.397,89.606,12.782,134.061,20.366l33.327,5.679c11.103,1.889,22.206,3.769,33.304,5.563
		c22.198,3.697,44.401,6.992,66.614,9.936l16.662,1.933c2.777,0.297,5.556,0.701,8.33,0.91l8.327,0.714l8.326,0.716l4.163,0.356
		l4.152,0.187l16.608,0.754l8.339,0.049c1.427,0.023,2.791-0.01,4.147-0.048l4.089-0.098c2.714-0.033,5.476-0.186,8.234-0.332
		l4.135-0.212c1.379-0.074,2.756-0.204,4.134-0.304c11.022-0.809,22.03-2.075,33.005-3.776
		c43.948-6.681,87.165-19.445,131.64-28.901c22.243-4.694,44.827-8.555,67.71-10.472c11.439-0.943,22.936-1.418,34.443-1.372
		l8.713,0.133l8.446,0.345c2.792,0.088,5.678,0.284,8.55,0.466c2.863,0.199,5.762,0.322,8.596,0.585
		c45.587,3.486,90.376,12.619,134.273,23.604c21.965,5.447,43.749,11.43,65.468,16.714c10.853,2.606,21.711,5.053,32.47,6.724
		c5.371,0.807,10.709,1.391,15.918,1.6l3.854,0.03c1.269-0.023,2.493-0.135,3.742-0.19c0.301-0.02,0.646-0.026,0.909-0.057
		l1.052-0.106l2.103-0.213c1.424-0.136,2.739-0.304,4.104-0.457c21.782-2.525,43.269-7.513,62.679-16.692
		c19.33-9.168,36.407-22.767,48.04-40.451c5.873-8.775,10.487-18.409,13.909-28.518c3.409-10.113,5.757-20.67,6.956-31.44
		c0.435-2.667,0.533-5.396,0.779-8.097l0.326-4.061c0.126-1.352,0.099-2.722,0.156-4.082l0.223-7.94l-0.267-8.438l-0.706-7.841
		c-0.31-2.665-0.721-5.393-1.074-8.086l-0.28-2.026l-0.356-2.028l-0.713-4.058l-0.721-4.058l-0.848-4.053
		c-0.589-2.7-1.074-5.409-1.747-8.103l-1.922-8.088c-0.659-2.693-1.398-5.377-2.094-8.066l-1.058-4.032l-1.139-4.02l-2.287-8.036
		l-2.43-8.009c-0.794-2.673-1.637-5.335-2.498-7.993l-2.561-7.98c-7.026-21.232-14.705-42.298-22.869-63.194
		c-8.157-20.9-16.744-41.652-25.654-62.27c-8.923-20.59-18.142-41.153-27.733-61.338l12.357,1.739l-92.899,104.231l-8.462,9.495
		l-4.213-12l-74.778-212.995l14.078,0.203l-21.525,56.082l-10.763,28.041l-10.729,28.053l-10.63,28.092
		c-3.585,9.348-7.312,18.641-11.078,27.919l-22.521,55.699l-4.425,10.943l-6.545-9.554l-40.872-59.657l-40.796-59.711l6.324-0.811
		l-32.197,79.828l-32.363,79.765l28.818-81.113l28.984-81.05l2.255-6.306l4.069,5.495l43.039,58.115l42.963,58.169l-10.97,1.389
		l20.53-56.463c3.408-9.415,6.857-18.815,10.447-28.161l10.896-27.99l10.796-28.028l10.763-28.041l21.525-56.082l7.315-19.06
		l6.763,19.263l74.778,212.995l-12.675-2.506l92.899-104.231l7.521-8.439l4.836,10.178c9.757,20.533,18.98,41.115,27.984,61.888
		c8.974,20.765,17.626,41.675,25.86,62.771c8.241,21.093,16.009,42.397,23.146,63.963l2.604,8.117
		c0.876,2.703,1.733,5.413,2.544,8.142l2.479,8.169l2.341,8.224l1.164,4.113l1.088,4.145c0.716,2.766,1.473,5.517,2.153,8.296
		l1.986,8.359c0.691,2.775,1.206,5.617,1.816,8.422l0.882,4.222l0.759,4.265l0.749,4.268l0.374,2.135l0.301,2.159
		c0.382,2.893,0.809,5.74,1.148,8.671l0.786,8.999l0.267,8.459c0.009,0.121,0.009,0.814,0.001,0.78l-0.015,0.545l-0.03,1.091
		l-0.061,2.181l-0.122,4.362c-0.062,1.454-0.038,2.907-0.17,4.362l-0.348,4.366c-0.263,2.909-0.379,5.823-0.842,8.725
		c-1.303,11.63-3.852,23.216-7.641,34.453c-3.8,11.23-8.989,22.101-15.658,32.06l-1.225,1.882l-1.342,1.804l-2.69,3.604
		c-0.865,1.227-1.883,2.331-2.845,3.481l-2.92,3.42c-1.003,1.113-2.072,2.166-3.106,3.25c-1.056,1.063-2.058,2.182-3.16,3.194
		l-3.316,3.028l-1.66,1.512c-0.564,0.49-1.155,0.947-1.732,1.422c-9.216,7.623-19.38,14.008-30.069,19.052
		c-10.704,5.013-21.829,8.965-33.147,11.817c-11.315,2.921-22.764,4.883-34.254,6.226c-1.437,0.162-2.916,0.347-4.297,0.478
		l-2.103,0.213l-1.051,0.107c-0.437,0.047-0.797,0.054-1.199,0.083c-1.564,0.081-3.15,0.21-4.698,0.238l-4.599-0.035
		c-6.055-0.239-11.932-0.898-17.705-1.765c-11.52-1.792-22.671-4.318-33.73-6.971c-22.086-5.376-43.78-11.338-65.572-16.74
		c-21.772-5.451-43.604-10.387-65.568-14.416c-10.984-1.98-21.994-3.777-33.037-5.259c-11.045-1.438-22.109-2.69-33.197-3.528
		c-2.778-0.258-5.513-0.37-8.271-0.563c-2.752-0.175-5.487-0.366-8.329-0.456l-8.445-0.345l-8.19-0.12
		c-11.032-0.043-22.075,0.41-33.101,1.319c-22.057,1.847-44,5.585-65.854,10.198c-43.7,9.267-87.205,22.146-132.49,29.056
		c-11.301,1.751-22.704,3.066-34.161,3.907c-1.433,0.104-2.861,0.237-4.297,0.315l-4.306,0.222c-2.868,0.151-5.734,0.31-8.657,0.347
		l-4.361,0.103c-1.459,0.039-2.912,0.07-4.304,0.048l-8.565-0.052l-17.168-0.776l-4.292-0.195l-4.259-0.363l-8.518-0.73
		l-8.517-0.732c-2.845-0.216-5.648-0.623-8.475-0.925l-16.924-1.963c-22.477-2.978-44.871-6.304-67.143-10.013
		c-11.154-1.804-22.275-3.688-33.394-5.579l-33.334-5.68c-44.415-7.578-88.796-14.92-133.328-20.26l-16.699-1.971l-16.714-1.589
		l-8.357-0.787l-4.177-0.382l-4.158-0.269l-16.63-1.077l-4.157-0.271l-2.081-0.131l-2.112-0.06l-8.449-0.24l-8.449-0.239
		l-4.225-0.119l-2.112-0.061l-1.056-0.029c-0.21-0.008-0.065-0.004-0.372-0.003l-0.519,0.003
		c-11.075-0.023-22.144,0.348-33.187,1.128c-11.037,0.864-22.043,2.113-33.001,3.77c-10.955,1.683-21.85,3.81-32.698,6.237
		c-10.846,2.44-21.647,5.177-32.398,8.243c-10.765,3.016-21.469,6.364-32.255,9.604c-10.783,3.248-21.653,6.389-32.65,9.262
		c-10.99,2.893-22.086,5.593-33.319,7.845c-11.23,2.254-22.598,4.053-34.057,5.179l-8.608,0.704l-8.63,0.438
		c-2.887,0.113-5.821,0.105-8.726,0.16c-1.474,0.04-2.876,0.002-4.282-0.032l-4.226-0.094c-11.595-0.36-22.931-1.423-34.263-2.921
		c-11.315-1.481-22.522-3.495-33.638-5.837c-22.243-4.648-44.113-10.65-65.702-17.412c-21.579-6.803-42.865-14.443-63.807-22.906
		c-10.471-4.23-20.859-8.66-31.124-13.356c-5.132-2.349-10.234-4.765-15.262-7.33C20.561,509.007,15.53,506.399,10.845,503.263z"/>
</g>
</svg>
